<svg width="1363" height="163" viewBox="0 0 1363 163" fill="none" xmlns="http://www.w3.org/2000/svg">
<path d="M0 15C0 6.71573 6.71573 0 15 0H37V163H15C6.71573 163 0 156.284 0 148V15Z" fill="#424242"/>
<rect width="1097" height="163" transform="translate(37)" fill="#F0F0F0"/>
<path d="M108.047 52.082V58.8438C107.781 59.1641 107.371 59.5117 106.816 59.8867C106.262 60.2539 105.547 60.5703 104.672 60.8359C103.797 61.1016 102.738 61.2344 101.496 61.2344C100.395 61.2344 99.3906 61.0547 98.4844 60.6953C97.5781 60.3281 96.7969 59.793 96.1406 59.0898C95.4922 58.3867 94.9922 57.5273 94.6406 56.5117C94.2891 55.4883 94.1133 54.3203 94.1133 53.0078V51.9414C94.1133 50.6289 94.2812 49.4609 94.6172 48.4375C94.9609 47.4141 95.4492 46.5508 96.082 45.8477C96.7148 45.1445 97.4688 44.6094 98.3438 44.2422C99.2188 43.875 100.191 43.6914 101.262 43.6914C102.746 43.6914 103.965 43.9336 104.918 44.418C105.871 44.8945 106.598 45.5586 107.098 46.4102C107.605 47.2539 107.918 48.2227 108.035 49.3164H104.625C104.539 48.7383 104.375 48.2344 104.133 47.8047C103.891 47.375 103.543 47.0391 103.09 46.7969C102.645 46.5547 102.066 46.4336 101.355 46.4336C100.77 46.4336 100.246 46.5547 99.7852 46.7969C99.332 47.0312 98.9492 47.3789 98.6367 47.8398C98.3242 48.3008 98.0859 48.8711 97.9219 49.5508C97.7578 50.2305 97.6758 51.0195 97.6758 51.918V53.0078C97.6758 53.8984 97.7617 54.6875 97.9336 55.375C98.1055 56.0547 98.3594 56.6289 98.6953 57.0977C99.0391 57.5586 99.4609 57.9062 99.9609 58.1406C100.461 58.375 101.043 58.4922 101.707 58.4922C102.262 58.4922 102.723 58.4453 103.09 58.3516C103.465 58.2578 103.766 58.1445 103.992 58.0117C104.227 57.8711 104.406 57.7383 104.531 57.6133V54.5898H101.32V52.082H108.047ZM118.172 57.9648V48.3203H121.547V61H118.371L118.172 57.9648ZM118.547 55.3633L119.543 55.3398C119.543 56.1836 119.445 56.9688 119.25 57.6953C119.055 58.4141 118.762 59.0391 118.371 59.5703C117.98 60.0938 117.488 60.5039 116.895 60.8008C116.301 61.0898 115.602 61.2344 114.797 61.2344C114.18 61.2344 113.609 61.1484 113.086 60.9766C112.57 60.7969 112.125 60.5195 111.75 60.1445C111.383 59.7617 111.094 59.2734 110.883 58.6797C110.68 58.0781 110.578 57.3555 110.578 56.5117V48.3203H113.953V56.5352C113.953 56.9102 113.996 57.2266 114.082 57.4844C114.176 57.7422 114.305 57.9531 114.469 58.1172C114.633 58.2812 114.824 58.3984 115.043 58.4688C115.27 58.5391 115.52 58.5742 115.793 58.5742C116.488 58.5742 117.035 58.4336 117.434 58.1523C117.84 57.8711 118.125 57.4883 118.289 57.0039C118.461 56.5117 118.547 55.9648 118.547 55.3633ZM129.961 61.2344C128.977 61.2344 128.094 61.0781 127.312 60.7656C126.531 60.4453 125.867 60.0039 125.32 59.4414C124.781 58.8789 124.367 58.2266 124.078 57.4844C123.789 56.7344 123.645 55.9375 123.645 55.0938V54.625C123.645 53.6641 123.781 52.7852 124.055 51.9883C124.328 51.1914 124.719 50.5 125.227 49.9141C125.742 49.3281 126.367 48.8789 127.102 48.5664C127.836 48.2461 128.664 48.0859 129.586 48.0859C130.484 48.0859 131.281 48.2344 131.977 48.5312C132.672 48.8281 133.254 49.25 133.723 49.7969C134.199 50.3438 134.559 51 134.801 51.7656C135.043 52.5234 135.164 53.3672 135.164 54.2969V55.7031H125.086V53.4531H131.848V53.1953C131.848 52.7266 131.762 52.3086 131.59 51.9414C131.426 51.5664 131.176 51.2695 130.84 51.0508C130.504 50.832 130.074 50.7227 129.551 50.7227C129.105 50.7227 128.723 50.8203 128.402 51.0156C128.082 51.2109 127.82 51.4844 127.617 51.8359C127.422 52.1875 127.273 52.6016 127.172 53.0781C127.078 53.5469 127.031 54.0625 127.031 54.625V55.0938C127.031 55.6016 127.102 56.0703 127.242 56.5C127.391 56.9297 127.598 57.3008 127.863 57.6133C128.137 57.9258 128.465 58.168 128.848 58.3398C129.238 58.5117 129.68 58.5977 130.172 58.5977C130.781 58.5977 131.348 58.4805 131.871 58.2461C132.402 58.0039 132.859 57.6406 133.242 57.1562L134.883 58.9375C134.617 59.3203 134.254 59.6875 133.793 60.0391C133.34 60.3906 132.793 60.6797 132.152 60.9062C131.512 61.125 130.781 61.2344 129.961 61.2344ZM143.941 57.4961C143.941 57.2539 143.871 57.0352 143.73 56.8398C143.59 56.6445 143.328 56.4648 142.945 56.3008C142.57 56.1289 142.027 55.9727 141.316 55.832C140.676 55.6914 140.078 55.5156 139.523 55.3047C138.977 55.0859 138.5 54.8242 138.094 54.5195C137.695 54.2148 137.383 53.8555 137.156 53.4414C136.93 53.0195 136.816 52.5391 136.816 52C136.816 51.4688 136.93 50.9688 137.156 50.5C137.391 50.0312 137.723 49.6172 138.152 49.2578C138.59 48.8906 139.121 48.6055 139.746 48.4023C140.379 48.1914 141.09 48.0859 141.879 48.0859C142.98 48.0859 143.926 48.2617 144.715 48.6133C145.512 48.9648 146.121 49.4492 146.543 50.0664C146.973 50.6758 147.188 51.3711 147.188 52.1523H143.812C143.812 51.8242 143.742 51.5312 143.602 51.2734C143.469 51.0078 143.258 50.8008 142.969 50.6523C142.688 50.4961 142.32 50.418 141.867 50.418C141.492 50.418 141.168 50.4844 140.895 50.6172C140.621 50.7422 140.41 50.9141 140.262 51.1328C140.121 51.3438 140.051 51.5781 140.051 51.8359C140.051 52.0312 140.09 52.207 140.168 52.3633C140.254 52.5117 140.391 52.6484 140.578 52.7734C140.766 52.8984 141.008 53.0156 141.305 53.125C141.609 53.2266 141.984 53.3203 142.43 53.4062C143.344 53.5938 144.16 53.8398 144.879 54.1445C145.598 54.4414 146.168 54.8477 146.59 55.3633C147.012 55.8711 147.223 56.5391 147.223 57.3672C147.223 57.9297 147.098 58.4453 146.848 58.9141C146.598 59.3828 146.238 59.793 145.77 60.1445C145.301 60.4883 144.738 60.7578 144.082 60.9531C143.434 61.1406 142.703 61.2344 141.891 61.2344C140.711 61.2344 139.711 61.0234 138.891 60.6016C138.078 60.1797 137.461 59.6445 137.039 58.9961C136.625 58.3398 136.418 57.668 136.418 56.9805H139.617C139.633 57.4414 139.75 57.8125 139.969 58.0938C140.195 58.375 140.48 58.5781 140.824 58.7031C141.176 58.8281 141.555 58.8906 141.961 58.8906C142.398 58.8906 142.762 58.832 143.051 58.7148C143.34 58.5898 143.559 58.4258 143.707 58.2227C143.863 58.0117 143.941 57.7695 143.941 57.4961ZM156.27 57.4961C156.27 57.2539 156.199 57.0352 156.059 56.8398C155.918 56.6445 155.656 56.4648 155.273 56.3008C154.898 56.1289 154.355 55.9727 153.645 55.832C153.004 55.6914 152.406 55.5156 151.852 55.3047C151.305 55.0859 150.828 54.8242 150.422 54.5195C150.023 54.2148 149.711 53.8555 149.484 53.4414C149.258 53.0195 149.145 52.5391 149.145 52C149.145 51.4688 149.258 50.9688 149.484 50.5C149.719 50.0312 150.051 49.6172 150.48 49.2578C150.918 48.8906 151.449 48.6055 152.074 48.4023C152.707 48.1914 153.418 48.0859 154.207 48.0859C155.309 48.0859 156.254 48.2617 157.043 48.6133C157.84 48.9648 158.449 49.4492 158.871 50.0664C159.301 50.6758 159.516 51.3711 159.516 52.1523H156.141C156.141 51.8242 156.07 51.5312 155.93 51.2734C155.797 51.0078 155.586 50.8008 155.297 50.6523C155.016 50.4961 154.648 50.418 154.195 50.418C153.82 50.418 153.496 50.4844 153.223 50.6172C152.949 50.7422 152.738 50.9141 152.59 51.1328C152.449 51.3438 152.379 51.5781 152.379 51.8359C152.379 52.0312 152.418 52.207 152.496 52.3633C152.582 52.5117 152.719 52.6484 152.906 52.7734C153.094 52.8984 153.336 53.0156 153.633 53.125C153.938 53.2266 154.312 53.3203 154.758 53.4062C155.672 53.5938 156.488 53.8398 157.207 54.1445C157.926 54.4414 158.496 54.8477 158.918 55.3633C159.34 55.8711 159.551 56.5391 159.551 57.3672C159.551 57.9297 159.426 58.4453 159.176 58.9141C158.926 59.3828 158.566 59.793 158.098 60.1445C157.629 60.4883 157.066 60.7578 156.41 60.9531C155.762 61.1406 155.031 61.2344 154.219 61.2344C153.039 61.2344 152.039 61.0234 151.219 60.6016C150.406 60.1797 149.789 59.6445 149.367 58.9961C148.953 58.3398 148.746 57.668 148.746 56.9805H151.945C151.961 57.4414 152.078 57.8125 152.297 58.0938C152.523 58.375 152.809 58.5781 153.152 58.7031C153.504 58.8281 153.883 58.8906 154.289 58.8906C154.727 58.8906 155.09 58.832 155.379 58.7148C155.668 58.5898 155.887 58.4258 156.035 58.2227C156.191 58.0117 156.27 57.7695 156.27 57.4961ZM168.398 52.3516V55H161.777V52.3516H168.398ZM174.586 50.9453V61H171.199V48.3203H174.375L174.586 50.9453ZM174.117 54.2148H173.18C173.18 53.332 173.285 52.5195 173.496 51.7773C173.715 51.0273 174.031 50.3789 174.445 49.832C174.867 49.2773 175.387 48.8477 176.004 48.543C176.621 48.2383 177.336 48.0859 178.148 48.0859C178.711 48.0859 179.227 48.1719 179.695 48.3438C180.164 48.5078 180.566 48.7695 180.902 49.1289C181.246 49.4805 181.512 49.9414 181.699 50.5117C181.887 51.0742 181.98 51.75 181.98 52.5391V61H178.605V52.9141C178.605 52.3359 178.527 51.8906 178.371 51.5781C178.215 51.2656 177.992 51.0469 177.703 50.9219C177.422 50.7969 177.082 50.7344 176.684 50.7344C176.246 50.7344 175.863 50.8242 175.535 51.0039C175.215 51.1836 174.949 51.4336 174.738 51.7539C174.527 52.0664 174.371 52.4336 174.27 52.8555C174.168 53.2773 174.117 53.7305 174.117 54.2148ZM181.664 53.8281L180.457 53.9805C180.457 53.1523 180.559 52.3828 180.762 51.6719C180.973 50.9609 181.281 50.3359 181.688 49.7969C182.102 49.2578 182.613 48.8398 183.223 48.543C183.832 48.2383 184.535 48.0859 185.332 48.0859C185.941 48.0859 186.496 48.1758 186.996 48.3555C187.496 48.5273 187.922 48.8047 188.273 49.1875C188.633 49.5625 188.906 50.0547 189.094 50.6641C189.289 51.2734 189.387 52.0195 189.387 52.9023V61H186V52.9023C186 52.3164 185.922 51.8711 185.766 51.5664C185.617 51.2539 185.398 51.0391 185.109 50.9219C184.828 50.7969 184.492 50.7344 184.102 50.7344C183.695 50.7344 183.34 50.8164 183.035 50.9805C182.73 51.1367 182.477 51.3555 182.273 51.6367C182.07 51.918 181.918 52.2461 181.816 52.6211C181.715 52.9883 181.664 53.3906 181.664 53.8281ZM195.762 59.5703L199.125 48.3203H202.746L197.648 62.9102C197.539 63.2305 197.391 63.5742 197.203 63.9414C197.023 64.3086 196.777 64.6562 196.465 64.9844C196.16 65.3203 195.773 65.5938 195.305 65.8047C194.844 66.0156 194.277 66.1211 193.605 66.1211C193.285 66.1211 193.023 66.1016 192.82 66.0625C192.617 66.0234 192.375 65.9688 192.094 65.8984V63.4258C192.18 63.4258 192.27 63.4258 192.363 63.4258C192.457 63.4336 192.547 63.4375 192.633 63.4375C193.078 63.4375 193.441 63.3867 193.723 63.2852C194.004 63.1836 194.23 63.0273 194.402 62.8164C194.574 62.6133 194.711 62.3477 194.812 62.0195L195.762 59.5703ZM194.355 48.3203L197.109 57.5078L197.59 61.082L195.293 61.3281L190.734 48.3203H194.355ZM210.75 52.3516V55H204.129V52.3516H210.75ZM216.867 51.0273V61H213.492V48.3203H216.656L216.867 51.0273ZM216.375 54.2148H215.461C215.461 53.2773 215.582 52.4336 215.824 51.6836C216.066 50.9258 216.406 50.2812 216.844 49.75C217.281 49.2109 217.801 48.8008 218.402 48.5195C219.012 48.2305 219.691 48.0859 220.441 48.0859C221.035 48.0859 221.578 48.1719 222.07 48.3438C222.562 48.5156 222.984 48.7891 223.336 49.1641C223.695 49.5391 223.969 50.0352 224.156 50.6523C224.352 51.2695 224.449 52.0234 224.449 52.9141V61H221.051V52.9023C221.051 52.3398 220.973 51.9023 220.816 51.5898C220.66 51.2773 220.43 51.0586 220.125 50.9336C219.828 50.8008 219.461 50.7344 219.023 50.7344C218.57 50.7344 218.176 50.8242 217.84 51.0039C217.512 51.1836 217.238 51.4336 217.02 51.7539C216.809 52.0664 216.648 52.4336 216.539 52.8555C216.43 53.2773 216.375 53.7305 216.375 54.2148ZM234.516 57.9648V48.3203H237.891V61H234.715L234.516 57.9648ZM234.891 55.3633L235.887 55.3398C235.887 56.1836 235.789 56.9688 235.594 57.6953C235.398 58.4141 235.105 59.0391 234.715 59.5703C234.324 60.0938 233.832 60.5039 233.238 60.8008C232.645 61.0898 231.945 61.2344 231.141 61.2344C230.523 61.2344 229.953 61.1484 229.43 60.9766C228.914 60.7969 228.469 60.5195 228.094 60.1445C227.727 59.7617 227.438 59.2734 227.227 58.6797C227.023 58.0781 226.922 57.3555 226.922 56.5117V48.3203H230.297V56.5352C230.297 56.9102 230.34 57.2266 230.426 57.4844C230.52 57.7422 230.648 57.9531 230.812 58.1172C230.977 58.2812 231.168 58.3984 231.387 58.4688C231.613 58.5391 231.863 58.5742 232.137 58.5742C232.832 58.5742 233.379 58.4336 233.777 58.1523C234.184 57.8711 234.469 57.4883 234.633 57.0039C234.805 56.5117 234.891 55.9648 234.891 55.3633ZM243.844 50.9453V61H240.457V48.3203H243.633L243.844 50.9453ZM243.375 54.2148H242.438C242.438 53.332 242.543 52.5195 242.754 51.7773C242.973 51.0273 243.289 50.3789 243.703 49.832C244.125 49.2773 244.645 48.8477 245.262 48.543C245.879 48.2383 246.594 48.0859 247.406 48.0859C247.969 48.0859 248.484 48.1719 248.953 48.3438C249.422 48.5078 249.824 48.7695 250.16 49.1289C250.504 49.4805 250.77 49.9414 250.957 50.5117C251.145 51.0742 251.238 51.75 251.238 52.5391V61H247.863V52.9141C247.863 52.3359 247.785 51.8906 247.629 51.5781C247.473 51.2656 247.25 51.0469 246.961 50.9219C246.68 50.7969 246.34 50.7344 245.941 50.7344C245.504 50.7344 245.121 50.8242 244.793 51.0039C244.473 51.1836 244.207 51.4336 243.996 51.7539C243.785 52.0664 243.629 52.4336 243.527 52.8555C243.426 53.2773 243.375 53.7305 243.375 54.2148ZM250.922 53.8281L249.715 53.9805C249.715 53.1523 249.816 52.3828 250.02 51.6719C250.23 50.9609 250.539 50.3359 250.945 49.7969C251.359 49.2578 251.871 48.8398 252.48 48.543C253.09 48.2383 253.793 48.0859 254.59 48.0859C255.199 48.0859 255.754 48.1758 256.254 48.3555C256.754 48.5273 257.18 48.8047 257.531 49.1875C257.891 49.5625 258.164 50.0547 258.352 50.6641C258.547 51.2734 258.645 52.0195 258.645 52.9023V61H255.258V52.9023C255.258 52.3164 255.18 51.8711 255.023 51.5664C254.875 51.2539 254.656 51.0391 254.367 50.9219C254.086 50.7969 253.75 50.7344 253.359 50.7344C252.953 50.7344 252.598 50.8164 252.293 50.9805C251.988 51.1367 251.734 51.3555 251.531 51.6367C251.328 51.918 251.176 52.2461 251.074 52.6211C250.973 52.9883 250.922 53.3906 250.922 53.8281ZM261.258 43H264.633V58.0938L264.293 61H261.258V43ZM272.66 54.5312V54.7773C272.66 55.7227 272.559 56.5898 272.355 57.3789C272.16 58.168 271.855 58.8516 271.441 59.4297C271.027 60 270.512 60.4453 269.895 60.7656C269.285 61.0781 268.566 61.2344 267.738 61.2344C266.965 61.2344 266.293 61.0781 265.723 60.7656C265.16 60.4531 264.688 60.0117 264.305 59.4414C263.922 58.8711 263.613 58.2031 263.379 57.4375C263.145 56.6719 262.969 55.8359 262.852 54.9297V54.3906C262.969 53.4844 263.145 52.6484 263.379 51.8828C263.613 51.1172 263.922 50.4492 264.305 49.8789C264.688 49.3086 265.16 48.8672 265.723 48.5547C266.285 48.2422 266.949 48.0859 267.715 48.0859C268.551 48.0859 269.277 48.2461 269.895 48.5664C270.52 48.8789 271.035 49.3242 271.441 49.9023C271.855 50.4727 272.16 51.1523 272.355 51.9414C272.559 52.7227 272.66 53.5859 272.66 54.5312ZM269.285 54.7773V54.5312C269.285 54.0156 269.246 53.5312 269.168 53.0781C269.098 52.6172 268.973 52.2148 268.793 51.8711C268.613 51.5195 268.367 51.2422 268.055 51.0391C267.75 50.8359 267.355 50.7344 266.871 50.7344C266.41 50.7344 266.02 50.8125 265.699 50.9688C265.379 51.125 265.113 51.3438 264.902 51.625C264.699 51.9062 264.547 52.2422 264.445 52.6328C264.344 53.0156 264.281 53.4375 264.258 53.8984V55.4336C264.281 56.0508 264.383 56.5977 264.562 57.0742C264.75 57.543 265.031 57.9141 265.406 58.1875C265.789 58.4531 266.285 58.5859 266.895 58.5859C267.371 58.5859 267.766 58.4922 268.078 58.3047C268.391 58.1172 268.633 57.8516 268.805 57.5078C268.984 57.1641 269.109 56.7617 269.18 56.3008C269.25 55.832 269.285 55.3242 269.285 54.7773ZM280.594 61.2344C279.609 61.2344 278.727 61.0781 277.945 60.7656C277.164 60.4453 276.5 60.0039 275.953 59.4414C275.414 58.8789 275 58.2266 274.711 57.4844C274.422 56.7344 274.277 55.9375 274.277 55.0938V54.625C274.277 53.6641 274.414 52.7852 274.688 51.9883C274.961 51.1914 275.352 50.5 275.859 49.9141C276.375 49.3281 277 48.8789 277.734 48.5664C278.469 48.2461 279.297 48.0859 280.219 48.0859C281.117 48.0859 281.914 48.2344 282.609 48.5312C283.305 48.8281 283.887 49.25 284.355 49.7969C284.832 50.3438 285.191 51 285.434 51.7656C285.676 52.5234 285.797 53.3672 285.797 54.2969V55.7031H275.719V53.4531H282.48V53.1953C282.48 52.7266 282.395 52.3086 282.223 51.9414C282.059 51.5664 281.809 51.2695 281.473 51.0508C281.137 50.832 280.707 50.7227 280.184 50.7227C279.738 50.7227 279.355 50.8203 279.035 51.0156C278.715 51.2109 278.453 51.4844 278.25 51.8359C278.055 52.1875 277.906 52.6016 277.805 53.0781C277.711 53.5469 277.664 54.0625 277.664 54.625V55.0938C277.664 55.6016 277.734 56.0703 277.875 56.5C278.023 56.9297 278.23 57.3008 278.496 57.6133C278.77 57.9258 279.098 58.168 279.48 58.3398C279.871 58.5117 280.312 58.5977 280.805 58.5977C281.414 58.5977 281.98 58.4805 282.504 58.2461C283.035 58.0039 283.492 57.6406 283.875 57.1562L285.516 58.9375C285.25 59.3203 284.887 59.6875 284.426 60.0391C283.973 60.3906 283.426 60.6797 282.785 60.9062C282.145 61.125 281.414 61.2344 280.594 61.2344ZM291.094 51.0859V61H287.719V48.3203H290.895L291.094 51.0859ZM294.914 48.2383L294.855 51.3672C294.691 51.3438 294.492 51.3242 294.258 51.3086C294.031 51.2852 293.824 51.2734 293.637 51.2734C293.16 51.2734 292.746 51.3359 292.395 51.4609C292.051 51.5781 291.762 51.7539 291.527 51.9883C291.301 52.2227 291.129 52.5078 291.012 52.8438C290.902 53.1797 290.84 53.5625 290.824 53.9922L290.145 53.7812C290.145 52.9609 290.227 52.207 290.391 51.5195C290.555 50.8242 290.793 50.2188 291.105 49.7031C291.426 49.1875 291.816 48.7891 292.277 48.5078C292.738 48.2266 293.266 48.0859 293.859 48.0859C294.047 48.0859 294.238 48.1016 294.434 48.1328C294.629 48.1562 294.789 48.1914 294.914 48.2383Z" fill="#888888"/>
<path d="M113.18 109.93C113.18 109.398 113.102 108.922 112.945 108.5C112.789 108.062 112.5 107.656 112.078 107.281C111.656 106.906 111.047 106.531 110.25 106.156C109.469 105.766 108.438 105.359 107.156 104.938C105.656 104.438 104.211 103.875 102.82 103.25C101.43 102.609 100.188 101.867 99.0938 101.023C98 100.164 97.1328 99.1641 96.4922 98.0234C95.8516 96.8672 95.5312 95.5234 95.5312 93.9922C95.5312 92.5234 95.8594 91.2031 96.5156 90.0312C97.1719 88.8438 98.0859 87.8359 99.2578 87.0078C100.445 86.1641 101.836 85.5234 103.43 85.0859C105.023 84.6328 106.766 84.4062 108.656 84.4062C111.156 84.4062 113.359 84.8438 115.266 85.7188C117.188 86.5781 118.688 87.8047 119.766 89.3984C120.859 90.9766 121.406 92.8438 121.406 95H113.227C113.227 94.1406 113.047 93.3828 112.688 92.7266C112.344 92.0703 111.82 91.5547 111.117 91.1797C110.414 90.8047 109.531 90.6172 108.469 90.6172C107.438 90.6172 106.57 90.7734 105.867 91.0859C105.164 91.3984 104.633 91.8203 104.273 92.3516C103.914 92.8672 103.734 93.4375 103.734 94.0625C103.734 94.5781 103.875 95.0469 104.156 95.4688C104.453 95.875 104.867 96.2578 105.398 96.6172C105.945 96.9766 106.602 97.3203 107.367 97.6484C108.148 97.9766 109.023 98.2969 109.992 98.6094C111.805 99.1875 113.414 99.8359 114.82 100.555C116.242 101.258 117.438 102.062 118.406 102.969C119.391 103.859 120.133 104.875 120.633 106.016C121.148 107.156 121.406 108.445 121.406 109.883C121.406 111.414 121.109 112.773 120.516 113.961C119.922 115.148 119.07 116.156 117.961 116.984C116.852 117.797 115.523 118.414 113.977 118.836C112.43 119.258 110.703 119.469 108.797 119.469C107.047 119.469 105.32 119.25 103.617 118.812C101.93 118.359 100.398 117.672 99.0234 116.75C97.6484 115.812 96.5469 114.617 95.7188 113.164C94.9062 111.695 94.5 109.953 94.5 107.938H102.75C102.75 108.938 102.883 109.781 103.148 110.469C103.414 111.156 103.805 111.711 104.32 112.133C104.836 112.539 105.469 112.836 106.219 113.023C106.969 113.195 107.828 113.281 108.797 113.281C109.844 113.281 110.688 113.133 111.328 112.836C111.969 112.523 112.438 112.117 112.734 111.617C113.031 111.102 113.18 110.539 113.18 109.93ZM133.031 99.0547V119H125.133V93.6406H132.539L133.031 99.0547ZM132.094 105.453L130.242 105.5C130.242 103.562 130.477 101.836 130.945 100.32C131.414 98.7891 132.078 97.4922 132.938 96.4297C133.797 95.3672 134.82 94.5625 136.008 94.0156C137.211 93.4531 138.547 93.1719 140.016 93.1719C141.188 93.1719 142.258 93.3438 143.227 93.6875C144.211 94.0312 145.055 94.5859 145.758 95.3516C146.477 96.1172 147.023 97.1328 147.398 98.3984C147.789 99.6484 147.984 101.195 147.984 103.039V119H140.039V103.016C140.039 102 139.898 101.227 139.617 100.695C139.336 100.148 138.93 99.7734 138.398 99.5703C137.867 99.3672 137.219 99.2656 136.453 99.2656C135.641 99.2656 134.953 99.4219 134.391 99.7344C133.828 100.047 133.375 100.484 133.031 101.047C132.703 101.594 132.461 102.242 132.305 102.992C132.164 103.742 132.094 104.562 132.094 105.453ZM165.539 112.625V102.172C165.539 101.453 165.438 100.836 165.234 100.32C165.031 99.8047 164.711 99.4062 164.273 99.125C163.836 98.8281 163.25 98.6797 162.516 98.6797C161.922 98.6797 161.414 98.7812 160.992 98.9844C160.57 99.1875 160.25 99.4922 160.031 99.8984C159.812 100.305 159.703 100.82 159.703 101.445H151.805C151.805 100.273 152.062 99.1875 152.578 98.1875C153.109 97.1719 153.859 96.2891 154.828 95.5391C155.812 94.7891 156.984 94.2109 158.344 93.8047C159.719 93.3828 161.25 93.1719 162.938 93.1719C164.953 93.1719 166.75 93.5078 168.328 94.1797C169.922 94.8516 171.18 95.8594 172.102 97.2031C173.023 98.5312 173.484 100.203 173.484 102.219V112.602C173.484 114.258 173.578 115.516 173.766 116.375C173.953 117.219 174.219 117.961 174.562 118.602V119H166.641C166.266 118.219 165.984 117.266 165.797 116.141C165.625 115 165.539 113.828 165.539 112.625ZM166.5 103.508L166.547 107.727H163.055C162.32 107.727 161.695 107.828 161.18 108.031C160.68 108.234 160.273 108.516 159.961 108.875C159.664 109.219 159.445 109.609 159.305 110.047C159.18 110.484 159.117 110.945 159.117 111.43C159.117 111.898 159.227 112.32 159.445 112.695C159.68 113.055 159.992 113.336 160.383 113.539C160.773 113.742 161.211 113.844 161.695 113.844C162.57 113.844 163.312 113.68 163.922 113.352C164.547 113.008 165.023 112.594 165.352 112.109C165.68 111.625 165.844 111.172 165.844 110.75L167.578 113.984C167.266 114.609 166.906 115.242 166.5 115.883C166.109 116.523 165.617 117.117 165.023 117.664C164.445 118.195 163.734 118.633 162.891 118.977C162.047 119.305 161.023 119.469 159.82 119.469C158.258 119.469 156.82 119.148 155.508 118.508C154.211 117.867 153.172 116.977 152.391 115.836C151.609 114.68 151.219 113.352 151.219 111.852C151.219 110.539 151.453 109.367 151.922 108.336C152.406 107.305 153.133 106.43 154.102 105.711C155.07 104.992 156.305 104.445 157.805 104.07C159.305 103.695 161.07 103.508 163.102 103.508H166.5ZM185.836 98.5156V128.75H177.938V93.6406H185.297L185.836 98.5156ZM201.398 106.016V106.508C201.398 108.352 201.188 110.062 200.766 111.641C200.344 113.219 199.719 114.594 198.891 115.766C198.062 116.938 197.031 117.852 195.797 118.508C194.578 119.148 193.164 119.469 191.555 119.469C190.039 119.469 188.734 119.133 187.641 118.461C186.547 117.789 185.633 116.859 184.898 115.672C184.164 114.484 183.57 113.125 183.117 111.594C182.664 110.062 182.305 108.445 182.039 106.742V106.109C182.305 104.281 182.664 102.586 183.117 101.023C183.57 99.4453 184.164 98.0703 184.898 96.8984C185.633 95.7266 186.539 94.8125 187.617 94.1562C188.711 93.5 190.016 93.1719 191.531 93.1719C193.141 93.1719 194.555 93.4766 195.773 94.0859C197.008 94.6953 198.039 95.5703 198.867 96.7109C199.711 97.8359 200.344 99.1875 200.766 100.766C201.188 102.344 201.398 104.094 201.398 106.016ZM193.5 106.508V106.016C193.5 105.031 193.43 104.133 193.289 103.32C193.148 102.492 192.922 101.773 192.609 101.164C192.312 100.555 191.914 100.086 191.414 99.7578C190.914 99.4297 190.297 99.2656 189.562 99.2656C188.719 99.2656 188.008 99.3984 187.43 99.6641C186.867 99.9141 186.414 100.305 186.07 100.836C185.742 101.352 185.508 102 185.367 102.781C185.242 103.547 185.188 104.445 185.203 105.477V107.398C185.172 108.586 185.289 109.633 185.555 110.539C185.82 111.43 186.281 112.125 186.938 112.625C187.594 113.125 188.484 113.375 189.609 113.375C190.359 113.375 190.984 113.203 191.484 112.859C191.984 112.5 192.383 112.008 192.68 111.383C192.977 110.742 193.188 110.008 193.312 109.18C193.438 108.352 193.5 107.461 193.5 106.508ZM218.203 111.875C218.203 111.438 218.055 111.062 217.758 110.75C217.477 110.422 216.977 110.125 216.258 109.859C215.539 109.578 214.531 109.297 213.234 109.016C212 108.75 210.836 108.398 209.742 107.961C208.664 107.523 207.719 106.992 206.906 106.367C206.094 105.742 205.453 105 204.984 104.141C204.531 103.281 204.305 102.297 204.305 101.188C204.305 100.109 204.531 99.0938 204.984 98.1406C205.453 97.1719 206.133 96.3203 207.023 95.5859C207.93 94.8359 209.031 94.25 210.328 93.8281C211.625 93.3906 213.102 93.1719 214.758 93.1719C217.039 93.1719 219.008 93.5234 220.664 94.2266C222.32 94.9141 223.594 95.8828 224.484 97.1328C225.391 98.3672 225.844 99.7969 225.844 101.422H217.945C217.945 100.781 217.836 100.234 217.617 99.7812C217.414 99.3281 217.078 98.9844 216.609 98.75C216.141 98.5 215.516 98.375 214.734 98.375C214.188 98.375 213.688 98.4766 213.234 98.6797C212.797 98.8828 212.445 99.1641 212.18 99.5234C211.914 99.8828 211.781 100.305 211.781 100.789C211.781 101.133 211.859 101.445 212.016 101.727C212.188 101.992 212.445 102.242 212.789 102.477C213.133 102.695 213.57 102.898 214.102 103.086C214.633 103.258 215.273 103.414 216.023 103.555C217.727 103.867 219.32 104.312 220.805 104.891C222.289 105.469 223.492 106.289 224.414 107.352C225.352 108.414 225.82 109.844 225.82 111.641C225.82 112.766 225.562 113.805 225.047 114.758C224.531 115.695 223.789 116.523 222.82 117.242C221.852 117.945 220.688 118.492 219.328 118.883C217.969 119.273 216.438 119.469 214.734 119.469C212.312 119.469 210.266 119.039 208.594 118.18C206.922 117.305 205.656 116.211 204.797 114.898C203.953 113.57 203.531 112.227 203.531 110.867H210.891C210.922 111.648 211.109 112.289 211.453 112.789C211.812 113.289 212.289 113.656 212.883 113.891C213.477 114.125 214.164 114.242 214.945 114.242C215.664 114.242 216.258 114.141 216.727 113.938C217.211 113.734 217.578 113.461 217.828 113.117C218.078 112.758 218.203 112.344 218.203 111.875ZM237.258 83V119H229.359V83H237.258ZM236.32 105.453L234.469 105.5C234.469 103.719 234.688 102.078 235.125 100.578C235.562 99.0781 236.188 97.7734 237 96.6641C237.812 95.5547 238.789 94.6953 239.93 94.0859C241.07 93.4766 242.336 93.1719 243.727 93.1719C244.977 93.1719 246.117 93.3516 247.148 93.7109C248.195 94.0703 249.094 94.6484 249.844 95.4453C250.609 96.2422 251.195 97.2812 251.602 98.5625C252.023 99.8438 252.234 101.406 252.234 103.25V119H244.289V103.203C244.289 102.172 244.141 101.375 243.844 100.812C243.562 100.234 243.156 99.8359 242.625 99.6172C242.094 99.3828 241.445 99.2656 240.68 99.2656C239.758 99.2656 239.008 99.4219 238.43 99.7344C237.852 100.047 237.406 100.484 237.094 101.047C236.797 101.594 236.594 102.242 236.484 102.992C236.375 103.742 236.32 104.562 236.32 105.453ZM255.633 106.578V106.086C255.633 104.227 255.898 102.516 256.43 100.953C256.961 99.375 257.742 98.0078 258.773 96.8516C259.805 95.6953 261.078 94.7969 262.594 94.1562C264.109 93.5 265.859 93.1719 267.844 93.1719C269.844 93.1719 271.602 93.5 273.117 94.1562C274.648 94.7969 275.93 95.6953 276.961 96.8516C277.992 98.0078 278.773 99.375 279.305 100.953C279.836 102.516 280.102 104.227 280.102 106.086V106.578C280.102 108.422 279.836 110.133 279.305 111.711C278.773 113.273 277.992 114.641 276.961 115.812C275.93 116.969 274.656 117.867 273.141 118.508C271.625 119.148 269.875 119.469 267.891 119.469C265.906 119.469 264.148 119.148 262.617 118.508C261.086 117.867 259.805 116.969 258.773 115.812C257.742 114.641 256.961 113.273 256.43 111.711C255.898 110.133 255.633 108.422 255.633 106.578ZM263.531 106.086V106.578C263.531 107.531 263.602 108.422 263.742 109.25C263.883 110.078 264.117 110.805 264.445 111.43C264.773 112.039 265.219 112.516 265.781 112.859C266.344 113.203 267.047 113.375 267.891 113.375C268.719 113.375 269.406 113.203 269.953 112.859C270.516 112.516 270.961 112.039 271.289 111.43C271.617 110.805 271.852 110.078 271.992 109.25C272.133 108.422 272.203 107.531 272.203 106.578V106.086C272.203 105.164 272.133 104.297 271.992 103.484C271.852 102.656 271.617 101.93 271.289 101.305C270.961 100.664 270.516 100.164 269.953 99.8047C269.391 99.4453 268.688 99.2656 267.844 99.2656C267.016 99.2656 266.32 99.4453 265.758 99.8047C265.211 100.164 264.773 100.664 264.445 101.305C264.117 101.93 263.883 102.656 263.742 103.484C263.602 104.297 263.531 105.164 263.531 106.086ZM296.977 93.6406V99.125H281.695V93.6406H296.977ZM284.906 87.3359H292.805V110.727C292.805 111.398 292.883 111.922 293.039 112.297C293.195 112.656 293.461 112.914 293.836 113.07C294.227 113.211 294.742 113.281 295.383 113.281C295.836 113.281 296.211 113.273 296.508 113.258C296.805 113.227 297.086 113.188 297.352 113.141V118.789C296.68 119.008 295.977 119.172 295.242 119.281C294.508 119.406 293.727 119.469 292.898 119.469C291.211 119.469 289.766 119.203 288.562 118.672C287.375 118.141 286.469 117.305 285.844 116.164C285.219 115.023 284.906 113.539 284.906 111.711V87.3359ZM313.406 111.875C313.406 111.438 313.258 111.062 312.961 110.75C312.68 110.422 312.18 110.125 311.461 109.859C310.742 109.578 309.734 109.297 308.438 109.016C307.203 108.75 306.039 108.398 304.945 107.961C303.867 107.523 302.922 106.992 302.109 106.367C301.297 105.742 300.656 105 300.188 104.141C299.734 103.281 299.508 102.297 299.508 101.188C299.508 100.109 299.734 99.0938 300.188 98.1406C300.656 97.1719 301.336 96.3203 302.227 95.5859C303.133 94.8359 304.234 94.25 305.531 93.8281C306.828 93.3906 308.305 93.1719 309.961 93.1719C312.242 93.1719 314.211 93.5234 315.867 94.2266C317.523 94.9141 318.797 95.8828 319.688 97.1328C320.594 98.3672 321.047 99.7969 321.047 101.422H313.148C313.148 100.781 313.039 100.234 312.82 99.7812C312.617 99.3281 312.281 98.9844 311.812 98.75C311.344 98.5 310.719 98.375 309.938 98.375C309.391 98.375 308.891 98.4766 308.438 98.6797C308 98.8828 307.648 99.1641 307.383 99.5234C307.117 99.8828 306.984 100.305 306.984 100.789C306.984 101.133 307.062 101.445 307.219 101.727C307.391 101.992 307.648 102.242 307.992 102.477C308.336 102.695 308.773 102.898 309.305 103.086C309.836 103.258 310.477 103.414 311.227 103.555C312.93 103.867 314.523 104.312 316.008 104.891C317.492 105.469 318.695 106.289 319.617 107.352C320.555 108.414 321.023 109.844 321.023 111.641C321.023 112.766 320.766 113.805 320.25 114.758C319.734 115.695 318.992 116.523 318.023 117.242C317.055 117.945 315.891 118.492 314.531 118.883C313.172 119.273 311.641 119.469 309.938 119.469C307.516 119.469 305.469 119.039 303.797 118.18C302.125 117.305 300.859 116.211 300 114.898C299.156 113.57 298.734 112.227 298.734 110.867H306.094C306.125 111.648 306.312 112.289 306.656 112.789C307.016 113.289 307.492 113.656 308.086 113.891C308.68 114.125 309.367 114.242 310.148 114.242C310.867 114.242 311.461 114.141 311.93 113.938C312.414 113.734 312.781 113.461 313.031 113.117C313.281 112.758 313.406 112.344 313.406 111.875Z" fill="black"/>
<path d="M1134 0H1348C1356.28 0 1363 6.71573 1363 15V148C1363 156.284 1356.28 163 1348 163H1134V0Z" fill="#BF1E2E"/>
<path fill-rule="evenodd" clip-rule="evenodd" d="M1202.75 46.5018C1202.75 45.3973 1203.65 44.5018 1204.75 44.5018H1292.25C1293.35 44.5018 1294.25 45.3973 1294.25 46.5018V116.498C1294.25 117.603 1293.35 118.498 1292.25 118.498H1204.75C1203.65 118.498 1202.75 117.603 1202.75 116.498V46.5018ZM1206.75 48.5018V52.9963H1290.25V48.5018H1206.75ZM1290.25 56.9963H1235.19V114.498H1290.25V56.9963ZM1231.19 114.498V56.9963H1206.75V114.498H1231.19Z" fill="white"/>
<path fill-rule="evenodd" clip-rule="evenodd" d="M1209.72 62.3022C1209.72 61.1976 1210.62 60.3022 1211.72 60.3022H1225.72C1226.83 60.3022 1227.72 61.1976 1227.72 62.3022V81.6974C1227.72 82.802 1226.83 83.6974 1225.72 83.6974H1211.72C1210.62 83.6974 1209.72 82.802 1209.72 81.6974V62.3022ZM1213.72 64.3022V79.6974H1223.72V64.3022H1213.72ZM1239.33 63.1982C1239.33 62.0936 1240.22 61.1982 1241.33 61.1982H1284.25C1285.36 61.1982 1286.25 62.0936 1286.25 63.1982V109.407C1286.25 110.511 1285.36 111.407 1284.25 111.407H1241.33C1240.22 111.407 1239.33 110.511 1239.33 109.407V63.1982ZM1243.33 65.1982V107.407H1282.25V65.1982H1243.33ZM1209.56 93.4381C1209.56 92.3336 1210.46 91.4381 1211.56 91.4381H1220.48C1221.59 91.4381 1222.48 92.3336 1222.48 93.4381C1222.48 94.5427 1221.59 95.4381 1220.48 95.4381H1211.56C1210.46 95.4381 1209.56 94.5427 1209.56 93.4381ZM1209.56 100.438C1209.56 99.3335 1210.46 98.4381 1211.56 98.4381H1226.1C1227.21 98.4381 1228.1 99.3335 1228.1 100.438C1228.1 101.543 1227.21 102.438 1226.1 102.438H1211.56C1210.46 102.438 1209.56 101.543 1209.56 100.438ZM1209.56 107.438C1209.56 106.334 1210.46 105.438 1211.56 105.438H1220.48C1221.59 105.438 1222.48 106.334 1222.48 107.438C1222.48 108.543 1221.59 109.438 1220.48 109.438H1211.56C1210.46 109.438 1209.56 108.543 1209.56 107.438Z" fill="white"/>
</svg>
