<svg width="1363" height="163" viewBox="0 0 1363 163" fill="none" xmlns="http://www.w3.org/2000/svg">
<path d="M0 15C0 6.71573 6.71573 0 15 0H37V163H15C6.71573 163 0 156.284 0 148V15Z" fill="#424242"/>
<rect width="1097" height="163" transform="translate(37)" fill="#F0F0F0"/>
<path d="M108.047 52.082V58.8438C107.781 59.1641 107.371 59.5117 106.816 59.8867C106.262 60.2539 105.547 60.5703 104.672 60.8359C103.797 61.1016 102.738 61.2344 101.496 61.2344C100.395 61.2344 99.3906 61.0547 98.4844 60.6953C97.5781 60.3281 96.7969 59.793 96.1406 59.0898C95.4922 58.3867 94.9922 57.5273 94.6406 56.5117C94.2891 55.4883 94.1133 54.3203 94.1133 53.0078V51.9414C94.1133 50.6289 94.2812 49.4609 94.6172 48.4375C94.9609 47.4141 95.4492 46.5508 96.082 45.8477C96.7148 45.1445 97.4688 44.6094 98.3438 44.2422C99.2188 43.875 100.191 43.6914 101.262 43.6914C102.746 43.6914 103.965 43.9336 104.918 44.418C105.871 44.8945 106.598 45.5586 107.098 46.4102C107.605 47.2539 107.918 48.2227 108.035 49.3164H104.625C104.539 48.7383 104.375 48.2344 104.133 47.8047C103.891 47.375 103.543 47.0391 103.09 46.7969C102.645 46.5547 102.066 46.4336 101.355 46.4336C100.77 46.4336 100.246 46.5547 99.7852 46.7969C99.332 47.0312 98.9492 47.3789 98.6367 47.8398C98.3242 48.3008 98.0859 48.8711 97.9219 49.5508C97.7578 50.2305 97.6758 51.0195 97.6758 51.918V53.0078C97.6758 53.8984 97.7617 54.6875 97.9336 55.375C98.1055 56.0547 98.3594 56.6289 98.6953 57.0977C99.0391 57.5586 99.4609 57.9062 99.9609 58.1406C100.461 58.375 101.043 58.4922 101.707 58.4922C102.262 58.4922 102.723 58.4453 103.09 58.3516C103.465 58.2578 103.766 58.1445 103.992 58.0117C104.227 57.8711 104.406 57.7383 104.531 57.6133V54.5898H101.32V52.082H108.047ZM118.172 57.9648V48.3203H121.547V61H118.371L118.172 57.9648ZM118.547 55.3633L119.543 55.3398C119.543 56.1836 119.445 56.9688 119.25 57.6953C119.055 58.4141 118.762 59.0391 118.371 59.5703C117.98 60.0938 117.488 60.5039 116.895 60.8008C116.301 61.0898 115.602 61.2344 114.797 61.2344C114.18 61.2344 113.609 61.1484 113.086 60.9766C112.57 60.7969 112.125 60.5195 111.75 60.1445C111.383 59.7617 111.094 59.2734 110.883 58.6797C110.68 58.0781 110.578 57.3555 110.578 56.5117V48.3203H113.953V56.5352C113.953 56.9102 113.996 57.2266 114.082 57.4844C114.176 57.7422 114.305 57.9531 114.469 58.1172C114.633 58.2812 114.824 58.3984 115.043 58.4688C115.27 58.5391 115.52 58.5742 115.793 58.5742C116.488 58.5742 117.035 58.4336 117.434 58.1523C117.84 57.8711 118.125 57.4883 118.289 57.0039C118.461 56.5117 118.547 55.9648 118.547 55.3633ZM129.961 61.2344C128.977 61.2344 128.094 61.0781 127.312 60.7656C126.531 60.4453 125.867 60.0039 125.32 59.4414C124.781 58.8789 124.367 58.2266 124.078 57.4844C123.789 56.7344 123.645 55.9375 123.645 55.0938V54.625C123.645 53.6641 123.781 52.7852 124.055 51.9883C124.328 51.1914 124.719 50.5 125.227 49.9141C125.742 49.3281 126.367 48.8789 127.102 48.5664C127.836 48.2461 128.664 48.0859 129.586 48.0859C130.484 48.0859 131.281 48.2344 131.977 48.5312C132.672 48.8281 133.254 49.25 133.723 49.7969C134.199 50.3438 134.559 51 134.801 51.7656C135.043 52.5234 135.164 53.3672 135.164 54.2969V55.7031H125.086V53.4531H131.848V53.1953C131.848 52.7266 131.762 52.3086 131.59 51.9414C131.426 51.5664 131.176 51.2695 130.84 51.0508C130.504 50.832 130.074 50.7227 129.551 50.7227C129.105 50.7227 128.723 50.8203 128.402 51.0156C128.082 51.2109 127.82 51.4844 127.617 51.8359C127.422 52.1875 127.273 52.6016 127.172 53.0781C127.078 53.5469 127.031 54.0625 127.031 54.625V55.0938C127.031 55.6016 127.102 56.0703 127.242 56.5C127.391 56.9297 127.598 57.3008 127.863 57.6133C128.137 57.9258 128.465 58.168 128.848 58.3398C129.238 58.5117 129.68 58.5977 130.172 58.5977C130.781 58.5977 131.348 58.4805 131.871 58.2461C132.402 58.0039 132.859 57.6406 133.242 57.1562L134.883 58.9375C134.617 59.3203 134.254 59.6875 133.793 60.0391C133.34 60.3906 132.793 60.6797 132.152 60.9062C131.512 61.125 130.781 61.2344 129.961 61.2344ZM143.941 57.4961C143.941 57.2539 143.871 57.0352 143.73 56.8398C143.59 56.6445 143.328 56.4648 142.945 56.3008C142.57 56.1289 142.027 55.9727 141.316 55.832C140.676 55.6914 140.078 55.5156 139.523 55.3047C138.977 55.0859 138.5 54.8242 138.094 54.5195C137.695 54.2148 137.383 53.8555 137.156 53.4414C136.93 53.0195 136.816 52.5391 136.816 52C136.816 51.4688 136.93 50.9688 137.156 50.5C137.391 50.0312 137.723 49.6172 138.152 49.2578C138.59 48.8906 139.121 48.6055 139.746 48.4023C140.379 48.1914 141.09 48.0859 141.879 48.0859C142.98 48.0859 143.926 48.2617 144.715 48.6133C145.512 48.9648 146.121 49.4492 146.543 50.0664C146.973 50.6758 147.188 51.3711 147.188 52.1523H143.812C143.812 51.8242 143.742 51.5312 143.602 51.2734C143.469 51.0078 143.258 50.8008 142.969 50.6523C142.688 50.4961 142.32 50.418 141.867 50.418C141.492 50.418 141.168 50.4844 140.895 50.6172C140.621 50.7422 140.41 50.9141 140.262 51.1328C140.121 51.3438 140.051 51.5781 140.051 51.8359C140.051 52.0312 140.09 52.207 140.168 52.3633C140.254 52.5117 140.391 52.6484 140.578 52.7734C140.766 52.8984 141.008 53.0156 141.305 53.125C141.609 53.2266 141.984 53.3203 142.43 53.4062C143.344 53.5938 144.16 53.8398 144.879 54.1445C145.598 54.4414 146.168 54.8477 146.59 55.3633C147.012 55.8711 147.223 56.5391 147.223 57.3672C147.223 57.9297 147.098 58.4453 146.848 58.9141C146.598 59.3828 146.238 59.793 145.77 60.1445C145.301 60.4883 144.738 60.7578 144.082 60.9531C143.434 61.1406 142.703 61.2344 141.891 61.2344C140.711 61.2344 139.711 61.0234 138.891 60.6016C138.078 60.1797 137.461 59.6445 137.039 58.9961C136.625 58.3398 136.418 57.668 136.418 56.9805H139.617C139.633 57.4414 139.75 57.8125 139.969 58.0938C140.195 58.375 140.48 58.5781 140.824 58.7031C141.176 58.8281 141.555 58.8906 141.961 58.8906C142.398 58.8906 142.762 58.832 143.051 58.7148C143.34 58.5898 143.559 58.4258 143.707 58.2227C143.863 58.0117 143.941 57.7695 143.941 57.4961ZM156.27 57.4961C156.27 57.2539 156.199 57.0352 156.059 56.8398C155.918 56.6445 155.656 56.4648 155.273 56.3008C154.898 56.1289 154.355 55.9727 153.645 55.832C153.004 55.6914 152.406 55.5156 151.852 55.3047C151.305 55.0859 150.828 54.8242 150.422 54.5195C150.023 54.2148 149.711 53.8555 149.484 53.4414C149.258 53.0195 149.145 52.5391 149.145 52C149.145 51.4688 149.258 50.9688 149.484 50.5C149.719 50.0312 150.051 49.6172 150.48 49.2578C150.918 48.8906 151.449 48.6055 152.074 48.4023C152.707 48.1914 153.418 48.0859 154.207 48.0859C155.309 48.0859 156.254 48.2617 157.043 48.6133C157.84 48.9648 158.449 49.4492 158.871 50.0664C159.301 50.6758 159.516 51.3711 159.516 52.1523H156.141C156.141 51.8242 156.07 51.5312 155.93 51.2734C155.797 51.0078 155.586 50.8008 155.297 50.6523C155.016 50.4961 154.648 50.418 154.195 50.418C153.82 50.418 153.496 50.4844 153.223 50.6172C152.949 50.7422 152.738 50.9141 152.59 51.1328C152.449 51.3438 152.379 51.5781 152.379 51.8359C152.379 52.0312 152.418 52.207 152.496 52.3633C152.582 52.5117 152.719 52.6484 152.906 52.7734C153.094 52.8984 153.336 53.0156 153.633 53.125C153.938 53.2266 154.312 53.3203 154.758 53.4062C155.672 53.5938 156.488 53.8398 157.207 54.1445C157.926 54.4414 158.496 54.8477 158.918 55.3633C159.34 55.8711 159.551 56.5391 159.551 57.3672C159.551 57.9297 159.426 58.4453 159.176 58.9141C158.926 59.3828 158.566 59.793 158.098 60.1445C157.629 60.4883 157.066 60.7578 156.41 60.9531C155.762 61.1406 155.031 61.2344 154.219 61.2344C153.039 61.2344 152.039 61.0234 151.219 60.6016C150.406 60.1797 149.789 59.6445 149.367 58.9961C148.953 58.3398 148.746 57.668 148.746 56.9805H151.945C151.961 57.4414 152.078 57.8125 152.297 58.0938C152.523 58.375 152.809 58.5781 153.152 58.7031C153.504 58.8281 153.883 58.8906 154.289 58.8906C154.727 58.8906 155.09 58.832 155.379 58.7148C155.668 58.5898 155.887 58.4258 156.035 58.2227C156.191 58.0117 156.27 57.7695 156.27 57.4961ZM168.398 52.3516V55H161.777V52.3516H168.398ZM174.586 50.9453V61H171.199V48.3203H174.375L174.586 50.9453ZM174.117 54.2148H173.18C173.18 53.332 173.285 52.5195 173.496 51.7773C173.715 51.0273 174.031 50.3789 174.445 49.832C174.867 49.2773 175.387 48.8477 176.004 48.543C176.621 48.2383 177.336 48.0859 178.148 48.0859C178.711 48.0859 179.227 48.1719 179.695 48.3438C180.164 48.5078 180.566 48.7695 180.902 49.1289C181.246 49.4805 181.512 49.9414 181.699 50.5117C181.887 51.0742 181.98 51.75 181.98 52.5391V61H178.605V52.9141C178.605 52.3359 178.527 51.8906 178.371 51.5781C178.215 51.2656 177.992 51.0469 177.703 50.9219C177.422 50.7969 177.082 50.7344 176.684 50.7344C176.246 50.7344 175.863 50.8242 175.535 51.0039C175.215 51.1836 174.949 51.4336 174.738 51.7539C174.527 52.0664 174.371 52.4336 174.27 52.8555C174.168 53.2773 174.117 53.7305 174.117 54.2148ZM181.664 53.8281L180.457 53.9805C180.457 53.1523 180.559 52.3828 180.762 51.6719C180.973 50.9609 181.281 50.3359 181.688 49.7969C182.102 49.2578 182.613 48.8398 183.223 48.543C183.832 48.2383 184.535 48.0859 185.332 48.0859C185.941 48.0859 186.496 48.1758 186.996 48.3555C187.496 48.5273 187.922 48.8047 188.273 49.1875C188.633 49.5625 188.906 50.0547 189.094 50.6641C189.289 51.2734 189.387 52.0195 189.387 52.9023V61H186V52.9023C186 52.3164 185.922 51.8711 185.766 51.5664C185.617 51.2539 185.398 51.0391 185.109 50.9219C184.828 50.7969 184.492 50.7344 184.102 50.7344C183.695 50.7344 183.34 50.8164 183.035 50.9805C182.73 51.1367 182.477 51.3555 182.273 51.6367C182.07 51.918 181.918 52.2461 181.816 52.6211C181.715 52.9883 181.664 53.3906 181.664 53.8281ZM195.762 59.5703L199.125 48.3203H202.746L197.648 62.9102C197.539 63.2305 197.391 63.5742 197.203 63.9414C197.023 64.3086 196.777 64.6562 196.465 64.9844C196.16 65.3203 195.773 65.5938 195.305 65.8047C194.844 66.0156 194.277 66.1211 193.605 66.1211C193.285 66.1211 193.023 66.1016 192.82 66.0625C192.617 66.0234 192.375 65.9688 192.094 65.8984V63.4258C192.18 63.4258 192.27 63.4258 192.363 63.4258C192.457 63.4336 192.547 63.4375 192.633 63.4375C193.078 63.4375 193.441 63.3867 193.723 63.2852C194.004 63.1836 194.23 63.0273 194.402 62.8164C194.574 62.6133 194.711 62.3477 194.812 62.0195L195.762 59.5703ZM194.355 48.3203L197.109 57.5078L197.59 61.082L195.293 61.3281L190.734 48.3203H194.355ZM210.75 52.3516V55H204.129V52.3516H210.75ZM216.867 51.0273V61H213.492V48.3203H216.656L216.867 51.0273ZM216.375 54.2148H215.461C215.461 53.2773 215.582 52.4336 215.824 51.6836C216.066 50.9258 216.406 50.2812 216.844 49.75C217.281 49.2109 217.801 48.8008 218.402 48.5195C219.012 48.2305 219.691 48.0859 220.441 48.0859C221.035 48.0859 221.578 48.1719 222.07 48.3438C222.562 48.5156 222.984 48.7891 223.336 49.1641C223.695 49.5391 223.969 50.0352 224.156 50.6523C224.352 51.2695 224.449 52.0234 224.449 52.9141V61H221.051V52.9023C221.051 52.3398 220.973 51.9023 220.816 51.5898C220.66 51.2773 220.43 51.0586 220.125 50.9336C219.828 50.8008 219.461 50.7344 219.023 50.7344C218.57 50.7344 218.176 50.8242 217.84 51.0039C217.512 51.1836 217.238 51.4336 217.02 51.7539C216.809 52.0664 216.648 52.4336 216.539 52.8555C216.43 53.2773 216.375 53.7305 216.375 54.2148ZM234.516 57.9648V48.3203H237.891V61H234.715L234.516 57.9648ZM234.891 55.3633L235.887 55.3398C235.887 56.1836 235.789 56.9688 235.594 57.6953C235.398 58.4141 235.105 59.0391 234.715 59.5703C234.324 60.0938 233.832 60.5039 233.238 60.8008C232.645 61.0898 231.945 61.2344 231.141 61.2344C230.523 61.2344 229.953 61.1484 229.43 60.9766C228.914 60.7969 228.469 60.5195 228.094 60.1445C227.727 59.7617 227.438 59.2734 227.227 58.6797C227.023 58.0781 226.922 57.3555 226.922 56.5117V48.3203H230.297V56.5352C230.297 56.9102 230.34 57.2266 230.426 57.4844C230.52 57.7422 230.648 57.9531 230.812 58.1172C230.977 58.2812 231.168 58.3984 231.387 58.4688C231.613 58.5391 231.863 58.5742 232.137 58.5742C232.832 58.5742 233.379 58.4336 233.777 58.1523C234.184 57.8711 234.469 57.4883 234.633 57.0039C234.805 56.5117 234.891 55.9648 234.891 55.3633ZM243.844 50.9453V61H240.457V48.3203H243.633L243.844 50.9453ZM243.375 54.2148H242.438C242.438 53.332 242.543 52.5195 242.754 51.7773C242.973 51.0273 243.289 50.3789 243.703 49.832C244.125 49.2773 244.645 48.8477 245.262 48.543C245.879 48.2383 246.594 48.0859 247.406 48.0859C247.969 48.0859 248.484 48.1719 248.953 48.3438C249.422 48.5078 249.824 48.7695 250.16 49.1289C250.504 49.4805 250.77 49.9414 250.957 50.5117C251.145 51.0742 251.238 51.75 251.238 52.5391V61H247.863V52.9141C247.863 52.3359 247.785 51.8906 247.629 51.5781C247.473 51.2656 247.25 51.0469 246.961 50.9219C246.68 50.7969 246.34 50.7344 245.941 50.7344C245.504 50.7344 245.121 50.8242 244.793 51.0039C244.473 51.1836 244.207 51.4336 243.996 51.7539C243.785 52.0664 243.629 52.4336 243.527 52.8555C243.426 53.2773 243.375 53.7305 243.375 54.2148ZM250.922 53.8281L249.715 53.9805C249.715 53.1523 249.816 52.3828 250.02 51.6719C250.23 50.9609 250.539 50.3359 250.945 49.7969C251.359 49.2578 251.871 48.8398 252.48 48.543C253.09 48.2383 253.793 48.0859 254.59 48.0859C255.199 48.0859 255.754 48.1758 256.254 48.3555C256.754 48.5273 257.18 48.8047 257.531 49.1875C257.891 49.5625 258.164 50.0547 258.352 50.6641C258.547 51.2734 258.645 52.0195 258.645 52.9023V61H255.258V52.9023C255.258 52.3164 255.18 51.8711 255.023 51.5664C254.875 51.2539 254.656 51.0391 254.367 50.9219C254.086 50.7969 253.75 50.7344 253.359 50.7344C252.953 50.7344 252.598 50.8164 252.293 50.9805C251.988 51.1367 251.734 51.3555 251.531 51.6367C251.328 51.918 251.176 52.2461 251.074 52.6211C250.973 52.9883 250.922 53.3906 250.922 53.8281ZM261.258 43H264.633V58.0938L264.293 61H261.258V43ZM272.66 54.5312V54.7773C272.66 55.7227 272.559 56.5898 272.355 57.3789C272.16 58.168 271.855 58.8516 271.441 59.4297C271.027 60 270.512 60.4453 269.895 60.7656C269.285 61.0781 268.566 61.2344 267.738 61.2344C266.965 61.2344 266.293 61.0781 265.723 60.7656C265.16 60.4531 264.688 60.0117 264.305 59.4414C263.922 58.8711 263.613 58.2031 263.379 57.4375C263.145 56.6719 262.969 55.8359 262.852 54.9297V54.3906C262.969 53.4844 263.145 52.6484 263.379 51.8828C263.613 51.1172 263.922 50.4492 264.305 49.8789C264.688 49.3086 265.16 48.8672 265.723 48.5547C266.285 48.2422 266.949 48.0859 267.715 48.0859C268.551 48.0859 269.277 48.2461 269.895 48.5664C270.52 48.8789 271.035 49.3242 271.441 49.9023C271.855 50.4727 272.16 51.1523 272.355 51.9414C272.559 52.7227 272.66 53.5859 272.66 54.5312ZM269.285 54.7773V54.5312C269.285 54.0156 269.246 53.5312 269.168 53.0781C269.098 52.6172 268.973 52.2148 268.793 51.8711C268.613 51.5195 268.367 51.2422 268.055 51.0391C267.75 50.8359 267.355 50.7344 266.871 50.7344C266.41 50.7344 266.02 50.8125 265.699 50.9688C265.379 51.125 265.113 51.3438 264.902 51.625C264.699 51.9062 264.547 52.2422 264.445 52.6328C264.344 53.0156 264.281 53.4375 264.258 53.8984V55.4336C264.281 56.0508 264.383 56.5977 264.562 57.0742C264.75 57.543 265.031 57.9141 265.406 58.1875C265.789 58.4531 266.285 58.5859 266.895 58.5859C267.371 58.5859 267.766 58.4922 268.078 58.3047C268.391 58.1172 268.633 57.8516 268.805 57.5078C268.984 57.1641 269.109 56.7617 269.18 56.3008C269.25 55.832 269.285 55.3242 269.285 54.7773ZM280.594 61.2344C279.609 61.2344 278.727 61.0781 277.945 60.7656C277.164 60.4453 276.5 60.0039 275.953 59.4414C275.414 58.8789 275 58.2266 274.711 57.4844C274.422 56.7344 274.277 55.9375 274.277 55.0938V54.625C274.277 53.6641 274.414 52.7852 274.688 51.9883C274.961 51.1914 275.352 50.5 275.859 49.9141C276.375 49.3281 277 48.8789 277.734 48.5664C278.469 48.2461 279.297 48.0859 280.219 48.0859C281.117 48.0859 281.914 48.2344 282.609 48.5312C283.305 48.8281 283.887 49.25 284.355 49.7969C284.832 50.3438 285.191 51 285.434 51.7656C285.676 52.5234 285.797 53.3672 285.797 54.2969V55.7031H275.719V53.4531H282.48V53.1953C282.48 52.7266 282.395 52.3086 282.223 51.9414C282.059 51.5664 281.809 51.2695 281.473 51.0508C281.137 50.832 280.707 50.7227 280.184 50.7227C279.738 50.7227 279.355 50.8203 279.035 51.0156C278.715 51.2109 278.453 51.4844 278.25 51.8359C278.055 52.1875 277.906 52.6016 277.805 53.0781C277.711 53.5469 277.664 54.0625 277.664 54.625V55.0938C277.664 55.6016 277.734 56.0703 277.875 56.5C278.023 56.9297 278.23 57.3008 278.496 57.6133C278.77 57.9258 279.098 58.168 279.48 58.3398C279.871 58.5117 280.312 58.5977 280.805 58.5977C281.414 58.5977 281.98 58.4805 282.504 58.2461C283.035 58.0039 283.492 57.6406 283.875 57.1562L285.516 58.9375C285.25 59.3203 284.887 59.6875 284.426 60.0391C283.973 60.3906 283.426 60.6797 282.785 60.9062C282.145 61.125 281.414 61.2344 280.594 61.2344ZM291.094 51.0859V61H287.719V48.3203H290.895L291.094 51.0859ZM294.914 48.2383L294.855 51.3672C294.691 51.3438 294.492 51.3242 294.258 51.3086C294.031 51.2852 293.824 51.2734 293.637 51.2734C293.16 51.2734 292.746 51.3359 292.395 51.4609C292.051 51.5781 291.762 51.7539 291.527 51.9883C291.301 52.2227 291.129 52.5078 291.012 52.8438C290.902 53.1797 290.84 53.5625 290.824 53.9922L290.145 53.7812C290.145 52.9609 290.227 52.207 290.391 51.5195C290.555 50.8242 290.793 50.2188 291.105 49.7031C291.426 49.1875 291.816 48.7891 292.277 48.5078C292.738 48.2266 293.266 48.0859 293.859 48.0859C294.047 48.0859 294.238 48.1016 294.434 48.1328C294.629 48.1562 294.789 48.1914 294.914 48.2383Z" fill="#888888"/>
<path d="M109.219 107.422H100.734V101.07H109.219C110.375 101.07 111.312 100.875 112.031 100.484C112.75 100.094 113.273 99.5547 113.602 98.8672C113.945 98.1641 114.117 97.375 114.117 96.5C114.117 95.5625 113.945 94.6953 113.602 93.8984C113.273 93.1016 112.75 92.4609 112.031 91.9766C111.312 91.4766 110.375 91.2266 109.219 91.2266H103.828V119H95.6016V84.875H109.219C111.953 84.875 114.305 85.375 116.273 86.375C118.258 87.375 119.781 88.75 120.844 90.5C121.906 92.2344 122.438 94.2188 122.438 96.4531C122.438 98.6562 121.906 100.578 120.844 102.219C119.781 103.859 118.258 105.141 116.273 106.062C114.305 106.969 111.953 107.422 109.219 107.422ZM134.461 99.9219V119H126.562V93.6406H133.945L134.461 99.9219ZM141.961 93.4531L141.82 100.789C141.508 100.758 141.086 100.719 140.555 100.672C140.023 100.625 139.578 100.602 139.219 100.602C138.297 100.602 137.5 100.711 136.828 100.93C136.172 101.133 135.625 101.445 135.188 101.867C134.766 102.273 134.453 102.789 134.25 103.414C134.062 104.039 133.977 104.766 133.992 105.594L132.562 104.656C132.562 102.953 132.727 101.406 133.055 100.016C133.398 98.6094 133.883 97.3984 134.508 96.3828C135.133 95.3516 135.891 94.5625 136.781 94.0156C137.672 93.4531 138.672 93.1719 139.781 93.1719C140.172 93.1719 140.555 93.1953 140.93 93.2422C141.32 93.2891 141.664 93.3594 141.961 93.4531ZM142.852 106.578V106.086C142.852 104.227 143.117 102.516 143.648 100.953C144.18 99.375 144.961 98.0078 145.992 96.8516C147.023 95.6953 148.297 94.7969 149.812 94.1562C151.328 93.5 153.078 93.1719 155.062 93.1719C157.062 93.1719 158.82 93.5 160.336 94.1562C161.867 94.7969 163.148 95.6953 164.18 96.8516C165.211 98.0078 165.992 99.375 166.523 100.953C167.055 102.516 167.32 104.227 167.32 106.086V106.578C167.32 108.422 167.055 110.133 166.523 111.711C165.992 113.273 165.211 114.641 164.18 115.812C163.148 116.969 161.875 117.867 160.359 118.508C158.844 119.148 157.094 119.469 155.109 119.469C153.125 119.469 151.367 119.148 149.836 118.508C148.305 117.867 147.023 116.969 145.992 115.812C144.961 114.641 144.18 113.273 143.648 111.711C143.117 110.133 142.852 108.422 142.852 106.578ZM150.75 106.086V106.578C150.75 107.531 150.82 108.422 150.961 109.25C151.102 110.078 151.336 110.805 151.664 111.43C151.992 112.039 152.438 112.516 153 112.859C153.562 113.203 154.266 113.375 155.109 113.375C155.938 113.375 156.625 113.203 157.172 112.859C157.734 112.516 158.18 112.039 158.508 111.43C158.836 110.805 159.07 110.078 159.211 109.25C159.352 108.422 159.422 107.531 159.422 106.578V106.086C159.422 105.164 159.352 104.297 159.211 103.484C159.07 102.656 158.836 101.93 158.508 101.305C158.18 100.664 157.734 100.164 157.172 99.8047C156.609 99.4453 155.906 99.2656 155.062 99.2656C154.234 99.2656 153.539 99.4453 152.977 99.8047C152.43 100.164 151.992 100.664 151.664 101.305C151.336 101.93 151.102 102.656 150.961 103.484C150.82 104.297 150.75 105.164 150.75 106.086ZM171.422 93.6406H179.344V119.82C179.344 121.852 178.953 123.562 178.172 124.953C177.391 126.359 176.273 127.422 174.82 128.141C173.367 128.875 171.633 129.242 169.617 129.242C168.945 129.242 168.328 129.211 167.766 129.148C167.188 129.102 166.555 129 165.867 128.844V122.867C166.273 122.93 166.648 122.977 166.992 123.008C167.336 123.055 167.711 123.078 168.117 123.078C168.836 123.078 169.438 122.961 169.922 122.727C170.406 122.492 170.773 122.133 171.023 121.648C171.289 121.164 171.422 120.555 171.422 119.82V93.6406ZM170.836 87.1016C170.836 85.9766 171.242 85.0547 172.055 84.3359C172.867 83.6172 173.922 83.2578 175.219 83.2578C176.516 83.2578 177.57 83.6172 178.383 84.3359C179.195 85.0547 179.602 85.9766 179.602 87.1016C179.602 88.2266 179.195 89.1484 178.383 89.8672C177.57 90.5859 176.516 90.9453 175.219 90.9453C173.922 90.9453 172.867 90.5859 172.055 89.8672C171.242 89.1484 170.836 88.2266 170.836 87.1016ZM196.102 119.469C194.039 119.469 192.195 119.148 190.57 118.508C188.945 117.852 187.57 116.953 186.445 115.812C185.336 114.672 184.484 113.359 183.891 111.875C183.312 110.391 183.023 108.82 183.023 107.164V106.273C183.023 104.414 183.281 102.695 183.797 101.117C184.312 99.5234 185.078 98.1328 186.094 96.9453C187.109 95.7578 188.383 94.8359 189.914 94.1797C191.445 93.5078 193.227 93.1719 195.258 93.1719C197.055 93.1719 198.664 93.4609 200.086 94.0391C201.508 94.6172 202.711 95.4453 203.695 96.5234C204.695 97.6016 205.453 98.9062 205.969 100.438C206.5 101.969 206.766 103.688 206.766 105.594V108.805H186.047V103.859H199.055V103.25C199.07 102.406 198.922 101.688 198.609 101.094C198.312 100.5 197.875 100.047 197.297 99.7344C196.719 99.4219 196.016 99.2656 195.188 99.2656C194.328 99.2656 193.617 99.4531 193.055 99.8281C192.508 100.203 192.078 100.719 191.766 101.375C191.469 102.016 191.258 102.758 191.133 103.602C191.008 104.445 190.945 105.336 190.945 106.273V107.164C190.945 108.102 191.07 108.953 191.32 109.719C191.586 110.484 191.961 111.141 192.445 111.688C192.945 112.219 193.539 112.633 194.227 112.93C194.93 113.227 195.727 113.375 196.617 113.375C197.695 113.375 198.758 113.172 199.805 112.766C200.852 112.359 201.75 111.688 202.5 110.75L206.086 115.016C205.57 115.75 204.836 116.461 203.883 117.148C202.945 117.836 201.82 118.398 200.508 118.836C199.195 119.258 197.727 119.469 196.102 119.469ZM220.688 113.375C221.422 113.375 222.047 113.242 222.562 112.977C223.094 112.695 223.492 112.305 223.758 111.805C224.039 111.289 224.172 110.672 224.156 109.953H231.586C231.602 111.859 231.133 113.531 230.18 114.969C229.242 116.391 227.961 117.5 226.336 118.297C224.727 119.078 222.906 119.469 220.875 119.469C218.891 119.469 217.156 119.148 215.672 118.508C214.188 117.852 212.945 116.945 211.945 115.789C210.961 114.617 210.219 113.25 209.719 111.688C209.234 110.125 208.992 108.43 208.992 106.602V106.062C208.992 104.234 209.234 102.539 209.719 100.977C210.219 99.3984 210.961 98.0312 211.945 96.875C212.945 95.7031 214.18 94.7969 215.648 94.1562C217.133 93.5 218.859 93.1719 220.828 93.1719C222.938 93.1719 224.797 93.5703 226.406 94.3672C228.031 95.1641 229.305 96.3203 230.227 97.8359C231.148 99.3516 231.602 101.188 231.586 103.344H224.156C224.172 102.578 224.055 101.891 223.805 101.281C223.555 100.672 223.164 100.188 222.633 99.8281C222.117 99.4531 221.453 99.2656 220.641 99.2656C219.828 99.2656 219.172 99.4453 218.672 99.8047C218.172 100.164 217.789 100.664 217.523 101.305C217.273 101.93 217.102 102.648 217.008 103.461C216.93 104.273 216.891 105.141 216.891 106.062V106.602C216.891 107.539 216.93 108.422 217.008 109.25C217.102 110.062 217.281 110.781 217.547 111.406C217.812 112.016 218.195 112.5 218.695 112.859C219.195 113.203 219.859 113.375 220.688 113.375ZM248.32 93.6406V99.125H233.039V93.6406H248.32ZM236.25 87.3359H244.148V110.727C244.148 111.398 244.227 111.922 244.383 112.297C244.539 112.656 244.805 112.914 245.18 113.07C245.57 113.211 246.086 113.281 246.727 113.281C247.18 113.281 247.555 113.273 247.852 113.258C248.148 113.227 248.43 113.188 248.695 113.141V118.789C248.023 119.008 247.32 119.172 246.586 119.281C245.852 119.406 245.07 119.469 244.242 119.469C242.555 119.469 241.109 119.203 239.906 118.672C238.719 118.141 237.812 117.305 237.188 116.164C236.562 115.023 236.25 113.539 236.25 111.711V87.3359ZM274.875 119H267.305L267.352 112.672H274.875C276.438 112.672 277.758 112.297 278.836 111.547C279.93 110.797 280.758 109.68 281.32 108.195C281.898 106.695 282.188 104.852 282.188 102.664V101.188C282.188 99.5469 282.023 98.1094 281.695 96.875C281.383 95.625 280.914 94.5859 280.289 93.7578C279.664 92.9141 278.883 92.2812 277.945 91.8594C277.023 91.4375 275.961 91.2266 274.758 91.2266H267.164V84.875H274.758C277.07 84.875 279.188 85.2734 281.109 86.0703C283.047 86.8516 284.719 87.9766 286.125 89.4453C287.547 90.8984 288.641 92.625 289.406 94.625C290.188 96.6094 290.578 98.8125 290.578 101.234V102.664C290.578 105.07 290.188 107.273 289.406 109.273C288.641 111.273 287.555 113 286.148 114.453C284.742 115.906 283.078 117.031 281.156 117.828C279.25 118.609 277.156 119 274.875 119ZM272.016 84.875V119H263.789V84.875H272.016ZM306.773 119.469C304.711 119.469 302.867 119.148 301.242 118.508C299.617 117.852 298.242 116.953 297.117 115.812C296.008 114.672 295.156 113.359 294.562 111.875C293.984 110.391 293.695 108.82 293.695 107.164V106.273C293.695 104.414 293.953 102.695 294.469 101.117C294.984 99.5234 295.75 98.1328 296.766 96.9453C297.781 95.7578 299.055 94.8359 300.586 94.1797C302.117 93.5078 303.898 93.1719 305.93 93.1719C307.727 93.1719 309.336 93.4609 310.758 94.0391C312.18 94.6172 313.383 95.4453 314.367 96.5234C315.367 97.6016 316.125 98.9062 316.641 100.438C317.172 101.969 317.438 103.688 317.438 105.594V108.805H296.719V103.859H309.727V103.25C309.742 102.406 309.594 101.688 309.281 101.094C308.984 100.5 308.547 100.047 307.969 99.7344C307.391 99.4219 306.688 99.2656 305.859 99.2656C305 99.2656 304.289 99.4531 303.727 99.8281C303.18 100.203 302.75 100.719 302.438 101.375C302.141 102.016 301.93 102.758 301.805 103.602C301.68 104.445 301.617 105.336 301.617 106.273V107.164C301.617 108.102 301.742 108.953 301.992 109.719C302.258 110.484 302.633 111.141 303.117 111.688C303.617 112.219 304.211 112.633 304.898 112.93C305.602 113.227 306.398 113.375 307.289 113.375C308.367 113.375 309.43 113.172 310.477 112.766C311.523 112.359 312.422 111.688 313.172 110.75L316.758 115.016C316.242 115.75 315.508 116.461 314.555 117.148C313.617 117.836 312.492 118.398 311.18 118.836C309.867 119.258 308.398 119.469 306.773 119.469ZM333.938 111.875C333.938 111.438 333.789 111.062 333.492 110.75C333.211 110.422 332.711 110.125 331.992 109.859C331.273 109.578 330.266 109.297 328.969 109.016C327.734 108.75 326.57 108.398 325.477 107.961C324.398 107.523 323.453 106.992 322.641 106.367C321.828 105.742 321.188 105 320.719 104.141C320.266 103.281 320.039 102.297 320.039 101.188C320.039 100.109 320.266 99.0938 320.719 98.1406C321.188 97.1719 321.867 96.3203 322.758 95.5859C323.664 94.8359 324.766 94.25 326.062 93.8281C327.359 93.3906 328.836 93.1719 330.492 93.1719C332.773 93.1719 334.742 93.5234 336.398 94.2266C338.055 94.9141 339.328 95.8828 340.219 97.1328C341.125 98.3672 341.578 99.7969 341.578 101.422H333.68C333.68 100.781 333.57 100.234 333.352 99.7812C333.148 99.3281 332.812 98.9844 332.344 98.75C331.875 98.5 331.25 98.375 330.469 98.375C329.922 98.375 329.422 98.4766 328.969 98.6797C328.531 98.8828 328.18 99.1641 327.914 99.5234C327.648 99.8828 327.516 100.305 327.516 100.789C327.516 101.133 327.594 101.445 327.75 101.727C327.922 101.992 328.18 102.242 328.523 102.477C328.867 102.695 329.305 102.898 329.836 103.086C330.367 103.258 331.008 103.414 331.758 103.555C333.461 103.867 335.055 104.312 336.539 104.891C338.023 105.469 339.227 106.289 340.148 107.352C341.086 108.414 341.555 109.844 341.555 111.641C341.555 112.766 341.297 113.805 340.781 114.758C340.266 115.695 339.523 116.523 338.555 117.242C337.586 117.945 336.422 118.492 335.062 118.883C333.703 119.273 332.172 119.469 330.469 119.469C328.047 119.469 326 119.039 324.328 118.18C322.656 117.305 321.391 116.211 320.531 114.898C319.688 113.57 319.266 112.227 319.266 110.867H326.625C326.656 111.648 326.844 112.289 327.188 112.789C327.547 113.289 328.023 113.656 328.617 113.891C329.211 114.125 329.898 114.242 330.68 114.242C331.398 114.242 331.992 114.141 332.461 113.938C332.945 113.734 333.312 113.461 333.562 113.117C333.812 112.758 333.938 112.344 333.938 111.875ZM355.969 113.375C356.703 113.375 357.328 113.242 357.844 112.977C358.375 112.695 358.773 112.305 359.039 111.805C359.32 111.289 359.453 110.672 359.438 109.953H366.867C366.883 111.859 366.414 113.531 365.461 114.969C364.523 116.391 363.242 117.5 361.617 118.297C360.008 119.078 358.188 119.469 356.156 119.469C354.172 119.469 352.438 119.148 350.953 118.508C349.469 117.852 348.227 116.945 347.227 115.789C346.242 114.617 345.5 113.25 345 111.688C344.516 110.125 344.273 108.43 344.273 106.602V106.062C344.273 104.234 344.516 102.539 345 100.977C345.5 99.3984 346.242 98.0312 347.227 96.875C348.227 95.7031 349.461 94.7969 350.93 94.1562C352.414 93.5 354.141 93.1719 356.109 93.1719C358.219 93.1719 360.078 93.5703 361.688 94.3672C363.312 95.1641 364.586 96.3203 365.508 97.8359C366.43 99.3516 366.883 101.188 366.867 103.344H359.438C359.453 102.578 359.336 101.891 359.086 101.281C358.836 100.672 358.445 100.188 357.914 99.8281C357.398 99.4531 356.734 99.2656 355.922 99.2656C355.109 99.2656 354.453 99.4453 353.953 99.8047C353.453 100.164 353.07 100.664 352.805 101.305C352.555 101.93 352.383 102.648 352.289 103.461C352.211 104.273 352.172 105.141 352.172 106.062V106.602C352.172 107.539 352.211 108.422 352.289 109.25C352.383 110.062 352.562 110.781 352.828 111.406C353.094 112.016 353.477 112.5 353.977 112.859C354.477 113.203 355.141 113.375 355.969 113.375ZM378.211 99.9219V119H370.312V93.6406H377.695L378.211 99.9219ZM385.711 93.4531L385.57 100.789C385.258 100.758 384.836 100.719 384.305 100.672C383.773 100.625 383.328 100.602 382.969 100.602C382.047 100.602 381.25 100.711 380.578 100.93C379.922 101.133 379.375 101.445 378.938 101.867C378.516 102.273 378.203 102.789 378 103.414C377.812 104.039 377.727 104.766 377.742 105.594L376.312 104.656C376.312 102.953 376.477 101.406 376.805 100.016C377.148 98.6094 377.633 97.3984 378.258 96.3828C378.883 95.3516 379.641 94.5625 380.531 94.0156C381.422 93.4531 382.422 93.1719 383.531 93.1719C383.922 93.1719 384.305 93.1953 384.68 93.2422C385.07 93.2891 385.414 93.3594 385.711 93.4531ZM396.773 93.6406V119H388.852V93.6406H396.773ZM388.383 87.1016C388.383 85.9766 388.789 85.0547 389.602 84.3359C390.414 83.6172 391.469 83.2578 392.766 83.2578C394.062 83.2578 395.117 83.6172 395.93 84.3359C396.742 85.0547 397.148 85.9766 397.148 87.1016C397.148 88.2266 396.742 89.1484 395.93 89.8672C395.117 90.5859 394.062 90.9453 392.766 90.9453C391.469 90.9453 390.414 90.5859 389.602 89.8672C388.789 89.1484 388.383 88.2266 388.383 87.1016ZM409.617 98.5156V128.75H401.719V93.6406H409.078L409.617 98.5156ZM425.18 106.016V106.508C425.18 108.352 424.969 110.062 424.547 111.641C424.125 113.219 423.5 114.594 422.672 115.766C421.844 116.938 420.812 117.852 419.578 118.508C418.359 119.148 416.945 119.469 415.336 119.469C413.82 119.469 412.516 119.133 411.422 118.461C410.328 117.789 409.414 116.859 408.68 115.672C407.945 114.484 407.352 113.125 406.898 111.594C406.445 110.062 406.086 108.445 405.82 106.742V106.109C406.086 104.281 406.445 102.586 406.898 101.023C407.352 99.4453 407.945 98.0703 408.68 96.8984C409.414 95.7266 410.32 94.8125 411.398 94.1562C412.492 93.5 413.797 93.1719 415.312 93.1719C416.922 93.1719 418.336 93.4766 419.555 94.0859C420.789 94.6953 421.82 95.5703 422.648 96.7109C423.492 97.8359 424.125 99.1875 424.547 100.766C424.969 102.344 425.18 104.094 425.18 106.016ZM417.281 106.508V106.016C417.281 105.031 417.211 104.133 417.07 103.32C416.93 102.492 416.703 101.773 416.391 101.164C416.094 100.555 415.695 100.086 415.195 99.7578C414.695 99.4297 414.078 99.2656 413.344 99.2656C412.5 99.2656 411.789 99.3984 411.211 99.6641C410.648 99.9141 410.195 100.305 409.852 100.836C409.523 101.352 409.289 102 409.148 102.781C409.023 103.547 408.969 104.445 408.984 105.477V107.398C408.953 108.586 409.07 109.633 409.336 110.539C409.602 111.43 410.062 112.125 410.719 112.625C411.375 113.125 412.266 113.375 413.391 113.375C414.141 113.375 414.766 113.203 415.266 112.859C415.766 112.5 416.164 112.008 416.461 111.383C416.758 110.742 416.969 110.008 417.094 109.18C417.219 108.352 417.281 107.461 417.281 106.508ZM442.055 93.6406V99.125H426.773V93.6406H442.055ZM429.984 87.3359H437.883V110.727C437.883 111.398 437.961 111.922 438.117 112.297C438.273 112.656 438.539 112.914 438.914 113.07C439.305 113.211 439.82 113.281 440.461 113.281C440.914 113.281 441.289 113.273 441.586 113.258C441.883 113.227 442.164 113.188 442.43 113.141V118.789C441.758 119.008 441.055 119.172 440.32 119.281C439.586 119.406 438.805 119.469 437.977 119.469C436.289 119.469 434.844 119.203 433.641 118.672C432.453 118.141 431.547 117.305 430.922 116.164C430.297 115.023 429.984 113.539 429.984 111.711V87.3359ZM453.539 93.6406V119H445.617V93.6406H453.539ZM445.148 87.1016C445.148 85.9766 445.555 85.0547 446.367 84.3359C447.18 83.6172 448.234 83.2578 449.531 83.2578C450.828 83.2578 451.883 83.6172 452.695 84.3359C453.508 85.0547 453.914 85.9766 453.914 87.1016C453.914 88.2266 453.508 89.1484 452.695 89.8672C451.883 90.5859 450.828 90.9453 449.531 90.9453C448.234 90.9453 447.18 90.5859 446.367 89.8672C445.555 89.1484 445.148 88.2266 445.148 87.1016ZM457.43 106.578V106.086C457.43 104.227 457.695 102.516 458.227 100.953C458.758 99.375 459.539 98.0078 460.57 96.8516C461.602 95.6953 462.875 94.7969 464.391 94.1562C465.906 93.5 467.656 93.1719 469.641 93.1719C471.641 93.1719 473.398 93.5 474.914 94.1562C476.445 94.7969 477.727 95.6953 478.758 96.8516C479.789 98.0078 480.57 99.375 481.102 100.953C481.633 102.516 481.898 104.227 481.898 106.086V106.578C481.898 108.422 481.633 110.133 481.102 111.711C480.57 113.273 479.789 114.641 478.758 115.812C477.727 116.969 476.453 117.867 474.938 118.508C473.422 119.148 471.672 119.469 469.688 119.469C467.703 119.469 465.945 119.148 464.414 118.508C462.883 117.867 461.602 116.969 460.57 115.812C459.539 114.641 458.758 113.273 458.227 111.711C457.695 110.133 457.43 108.422 457.43 106.578ZM465.328 106.086V106.578C465.328 107.531 465.398 108.422 465.539 109.25C465.68 110.078 465.914 110.805 466.242 111.43C466.57 112.039 467.016 112.516 467.578 112.859C468.141 113.203 468.844 113.375 469.688 113.375C470.516 113.375 471.203 113.203 471.75 112.859C472.312 112.516 472.758 112.039 473.086 111.43C473.414 110.805 473.648 110.078 473.789 109.25C473.93 108.422 474 107.531 474 106.578V106.086C474 105.164 473.93 104.297 473.789 103.484C473.648 102.656 473.414 101.93 473.086 101.305C472.758 100.664 472.312 100.164 471.75 99.8047C471.188 99.4453 470.484 99.2656 469.641 99.2656C468.812 99.2656 468.117 99.4453 467.555 99.8047C467.008 100.164 466.57 100.664 466.242 101.305C465.914 101.93 465.68 102.656 465.539 103.484C465.398 104.297 465.328 105.164 465.328 106.086ZM493.172 99.0547V119H485.273V93.6406H492.68L493.172 99.0547ZM492.234 105.453L490.383 105.5C490.383 103.562 490.617 101.836 491.086 100.32C491.555 98.7891 492.219 97.4922 493.078 96.4297C493.938 95.3672 494.961 94.5625 496.148 94.0156C497.352 93.4531 498.688 93.1719 500.156 93.1719C501.328 93.1719 502.398 93.3438 503.367 93.6875C504.352 94.0312 505.195 94.5859 505.898 95.3516C506.617 96.1172 507.164 97.1328 507.539 98.3984C507.93 99.6484 508.125 101.195 508.125 103.039V119H500.18V103.016C500.18 102 500.039 101.227 499.758 100.695C499.477 100.148 499.07 99.7734 498.539 99.5703C498.008 99.3672 497.359 99.2656 496.594 99.2656C495.781 99.2656 495.094 99.4219 494.531 99.7344C493.969 100.047 493.516 100.484 493.172 101.047C492.844 101.594 492.602 102.242 492.445 102.992C492.305 103.742 492.234 104.562 492.234 105.453Z" fill="black"/>
<path d="M1134 0H1348C1356.28 0 1363 6.71573 1363 15V148C1363 156.284 1356.28 163 1348 163H1134V0Z" fill="#BF1E2E"/>
<path d="M1234.26 103.786H1262.74V109.357H1234.26V103.786ZM1239.96 114.929H1257.04V120.5H1239.96V114.929ZM1248.5 42.5C1240.95 42.5 1233.71 45.4349 1228.37 50.6592C1223.03 55.8834 1220.03 62.969 1220.03 70.3571C1219.84 74.4057 1220.63 78.4412 1222.34 82.1315C1224.05 85.8219 1226.64 89.0616 1229.88 91.5843C1232.73 94.175 1234.26 95.6514 1234.26 98.2143H1239.96C1239.96 93.0886 1236.8 90.2193 1233.72 87.4614C1231.06 85.4676 1228.94 82.8658 1227.55 79.8838C1226.15 76.9019 1225.53 73.6308 1225.72 70.3571C1225.72 64.4466 1228.12 58.7781 1232.39 54.5988C1236.67 50.4194 1242.46 48.0714 1248.5 48.0714C1254.54 48.0714 1260.33 50.4194 1264.61 54.5988C1268.88 58.7781 1271.28 64.4466 1271.28 70.3571C1271.47 73.6333 1270.84 76.9059 1269.44 79.888C1268.04 82.8701 1265.92 85.4706 1263.25 87.4614C1260.2 90.2471 1257.04 93.0329 1257.04 98.2143H1262.74C1262.74 95.6514 1264.25 94.175 1267.12 91.5564C1270.36 89.0381 1272.94 85.8031 1274.66 82.1176C1276.37 78.4321 1277.16 74.4014 1276.97 70.3571C1276.97 66.6989 1276.24 63.0765 1274.81 59.6967C1273.37 56.3169 1271.28 53.2459 1268.63 50.6592C1265.99 48.0724 1262.85 46.0205 1259.4 44.6205C1255.94 43.2205 1252.24 42.5 1248.5 42.5Z" fill="white"/>
</svg>
